HIERARCHY
ROOT Hips
{
	OFFSET 0.00000 0.00000 0.00000
	CHANNELS 6 Xposition Yposition Zposition Zrotation Yrotation Xrotation 
	JOINT LHipJoint
	{
		OFFSET 0 0 0
		CHANNELS 3 Zrotation Yrotation Xrotation
		JOINT LeftHip
		{
			OFFSET 1.80322 -1.53100 0.99595
			CHANNELS 3 Zrotation Yrotation Xrotation
			JOINT LeftKnee
			{
				OFFSET 2.25177 -6.18669 0.00000
				CHANNELS 3 Zrotation Yrotation Xrotation
				JOINT LeftAnkle
				{
					OFFSET 2.26601 -6.22582 0.00000
					CHANNELS 3 Zrotation Yrotation Xrotation
					JOINT LeftToe
					{
						OFFSET 0.23701 -0.65119 2.15848
						CHANNELS 3 Zrotation Yrotation Xrotation
						End Site
						{
							OFFSET 0.00000 -0.00000 1.12949
						}
					}
				}
			}
		}
	}
	JOINT RHipJoint
	{
		OFFSET 0 0 0
		CHANNELS 3 Zrotation Yrotation Xrotation
		JOINT RightHip
		{
			OFFSET -1.93977 -1.53100 0.99595
			CHANNELS 3 Zrotation Yrotation Xrotation
			JOINT RightKnee
			{
				OFFSET -2.28036 -6.26523 0.00000
				CHANNELS 3 Zrotation Yrotation Xrotation
				JOINT RightAnkle
				{
					OFFSET -2.25490 -6.19528 0.00000
					CHANNELS 3 Zrotation Yrotation Xrotation
					JOINT RightToe
					{
						OFFSET -0.28375 -0.77960 2.23137
						CHANNELS 3 Zrotation Yrotation Xrotation
						End Site
						{
							OFFSET -0.00000 -0.00000 1.17899
						}
					}
				}
			}
		}
	}
	JOINT lowerback
	{
		OFFSET 0 0 0
		CHANNELS 3 Zrotation Yrotation Xrotation
		JOINT Chest
		{
			OFFSET -0.00088 2.12090 -0.02806
			CHANNELS 3 Zrotation Yrotation Xrotation
			JOINT Chest2
			{
				OFFSET -0.00286 2.09666 0.12974
				CHANNELS 3 Zrotation Yrotation Xrotation
				JOINT lowerneck
				{
					OFFSET 0 0 0
					CHANNELS 3 Zrotation Yrotation Xrotation
					JOINT Neck
					{
						OFFSET 0.07328 1.83526 0.07290
						CHANNELS 3 Zrotation Yrotation Xrotation
						JOINT Head
						{
							OFFSET -0.06683 1.74974 -0.49542
							CHANNELS 3 Zrotation Yrotation Xrotation
							End Site
							{
								OFFSET -0.03398 1.85163 -0.17573
							}
						}
					}
				}
				JOINT LeftCollar
				{
					OFFSET 0 0 0
					CHANNELS 3 Zrotation Yrotation Xrotation
					JOINT LeftShoulder
					{
						OFFSET 3.02113 1.18018 0.40602
CHANNELS 3 Zrotation Xrotation Yrotation
						JOINT LeftElbow
						{
OFFSET 0 -4.585380 -0.000000
CHANNELS 3 Zrotation Xrotation Yrotation
							JOINT LeftWrist
							{
OFFSET 0 -2.689350 -0.000000
CHANNELS 3 Zrotation Xrotation Yrotation
								JOINT lhand
								{
									OFFSET 0 0 0
CHANNELS 3 Zrotation Xrotation Yrotation
									JOINT LFingers
									{
OFFSET 0 -0.585060 -0.000000
CHANNELS 3 Zrotation Xrotation Yrotation
										End Site
										{
OFFSET 0 -0.471690 -0.000000
										}
									}
								}
								JOINT LThumb
								{
OFFSET 0 0.000000 0.000000
CHANNELS 3 Zrotation Xrotation Yrotation
									End Site
									{
OFFSET 0 -0.478890 0.478890
									}
								}
							}
						}
					}
				}
				JOINT RightCollar
				{
					OFFSET 0 0 0
					CHANNELS 3 Zrotation Yrotation Xrotation
					JOINT RightShoulder
					{
						OFFSET -2.95074 1.18843 0.31430
CHANNELS 3 Zrotation Xrotation Yrotation
						JOINT RightElbow
						{
OFFSET 0 -4.474500 -0.000000
CHANNELS 3 Zrotation Xrotation Yrotation
							JOINT RightWrist
							{
OFFSET 0 -2.938960 -0.000000
CHANNELS 3 Zrotation Xrotation Yrotation
								JOINT rhand
								{
									OFFSET 0 0 0
CHANNELS 3 Zrotation Xrotation Yrotation
									JOINT RFingers
									{
OFFSET 0 -0.405090 -0.000000
CHANNELS 3 Zrotation Xrotation Yrotation
										End Site
										{
OFFSET 0 -0.326600 -0.000000
										}
									}
								}
								JOINT RThumb
								{
OFFSET 0 0.000000 0.000000
CHANNELS 3 Zrotation Xrotation Yrotation
									End Site
									{
OFFSET 0 -0.331580 0.331580
									}
								}
							}
						}
					}
				}
			}
		}
	}
}
MOTION
Frames: 12
Frame Time: 0.008333333333333333
-0.558400 15.862700 4.084000 0.586800 -10.870200 6.068600 0.000000 0.000000 0.000000 -15.576700 1.861700 4.588700 0.000000 0.000000 0.000000 -0.176100 10.907200 -12.502700 0.009800 0.638700 1.755200 0.000000 0.000000 0.000000 12.965800 14.163800 -5.332600 -1.053300 -6.525900 18.318300 0.162200 -13.923700 -17.790000 -0.054500 1.505800 -4.141800 -0.452400 -2.011800 -2.294900 0.738500 -2.692000 -6.905800 1.094700 -1.305000 -5.811800 -1.912000 -8.365200 -10.706400 -0.223100 -11.558400 25.148200 -1.107200 -5.628300 9.824500 -0.000000 -0.000000 0.000000 1.347600 13.111400 -18.558000 16.759600 -26.539800 3.979300 5.835300 22.122400 -12.180500 0.000000 0.000000 0.000000 -7.125000 0.000000 0.000000 -18.930000 41.437400 -1.733000 -0.000000 -0.000000 0.000000 -6.381900 5.759100 23.979700 -12.369300 -20.356200 -2.229100 -10.309300 14.972400 5.744700 0.000000 0.000000 0.000000 7.125000 0.000000 -0.000000 13.630700 35.534900 3.245900
-0.549994 15.863543 4.073225 0.639633 -10.814075 5.972023 0.000000 0.000000 0.000000 -15.657745 1.803958 4.624782 0.000000 0.000000 0.000000 -0.184449 10.958537 -12.425981 0.008530 0.595071 1.635171 0.000000 0.000000 0.000000 12.908675 14.163276 -5.282072 -1.057062 -6.537230 18.351263 0.173109 -14.019990 -17.798734 -0.056357 1.532379 -4.214981 -0.379748 -2.028337 -2.066969 0.746741 -2.712447 -6.785547 1.069292 -1.318358 -5.816469 -1.780469 -8.200800 -11.058006 -0.175548 -11.343297 24.950691 -1.097414 -5.507013 9.812631 0.000000 0.000000 0.000000 1.162543 13.153225 -18.660823 16.766140 -26.548453 3.982270 5.865958 22.166507 -12.102130 0.000000 0.000000 0.000000 -7.125000 0.000000 0.000000 -18.879927 41.365981 -1.762802 0.000000 0.000000 0.000000 -6.566856 5.781462 22.453971 -12.107849 -19.966156 -2.138972 -9.421390 16.802691 7.865735 0.000000 0.000000 0.000000 7.125000 0.000000 0.000000 14.788909 37.566321 2.779626
-0.541629 15.862887 4.062976 0.722012 -10.737799 5.831633 0.000000 0.000000 0.000000 -15.767785 1.736457 4.709341 0.000000 0.000000 0.000000 -0.191271 10.998121 -12.359296 0.007560 0.560879 1.541314 0.000000 0.000000 0.000000 12.820756 14.121843 -5.223576 -1.066885 -6.566454 18.437109 0.175466 -14.059863 -17.831412 -0.057213 1.543451 -4.245499 -0.334787 -2.043069 -1.739264 0.750755 -2.730975 -6.690170 1.059972 -1.328577 -5.903896 -1.674747 -8.084197 -11.424838 -0.196656 -11.169752 24.684923 -1.109764 -5.416006 9.776958 0.000000 0.000000 0.000000 1.056624 13.273868 -18.750182 16.724565 -26.493224 3.963675 5.848250 22.140670 -12.083576 0.000000 0.000000 0.000000 -7.125000 0.000000 0.000000 -18.889364 41.346633 -1.773147 0.000000 0.000000 0.000000 -6.793658 5.952146 21.166373 -11.651953 -19.280548 -1.985886 -10.542568 16.895966 7.229378 0.000000 0.000000 0.000000 7.125000 0.000000 0.000000 13.726577 37.013492 2.760791
-0.534363 15.862600 4.056381 0.790355 -10.688860 5.737110 0.000000 0.000000 0.000000 -15.867603 1.688722 4.754286 0.000000 0.000000 0.000000 -0.199937 11.052934 -12.280175 0.005291 0.469633 1.290549 0.000000 0.000000 0.000000 12.738435 14.082450 -5.195491 -1.075126 -6.591108 18.509375 0.174402 -14.071904 -17.864860 -0.057391 1.546027 -4.252610 -0.272526 -2.053409 -1.454759 0.756684 -2.743470 -6.676582 1.043495 -1.336479 -6.054625 -1.534766 -7.980176 -11.789183 -0.360782 -10.991901 24.516315 -1.177799 -5.335714 9.764333 0.000000 0.000000 0.000000 1.017892 13.536930 -18.555502 16.663103 -26.411491 3.936320 5.865377 22.269215 -11.993747 0.000000 0.000000 0.000000 -7.125000 0.000000 0.000000 -18.847457 41.262963 -1.809498 0.000000 0.000000 0.000000 -6.980741 6.105321 19.320463 -11.212038 -18.612480 -1.843010 -10.636463 18.246321 7.093485 0.000000 0.000000 0.000000 7.125000 0.000000 0.000000 13.621776 36.885122 2.782637
-0.529142 15.861494 4.054853 0.843459 -10.672346 5.705735 0.000000 0.000000 0.000000 -15.943087 1.667072 4.760501 0.000000 0.000000 0.000000 -0.202574 11.065525 -12.249878 0.004274 0.421077 1.156941 0.000000 0.000000 0.000000 12.664128 14.075006 -5.221190 -1.085117 -6.620523 18.595990 0.169868 -14.067563 -17.917404 -0.057679 1.549913 -4.263303 -0.193523 -2.045803 -1.310926 0.766301 -2.731155 -6.701767 1.015921 -1.333304 -6.167406 -1.408751 -7.891887 -11.910342 -0.539910 -10.817784 24.022086 -1.225768 -5.268647 9.590889 0.000000 0.000000 0.000000 1.011478 13.831674 -18.039372 16.603107 -26.331594 3.909665 5.771265 22.381078 -12.082040 0.000000 0.000000 0.000000 -7.125000 0.000000 0.000000 -18.954341 41.338113 -1.783919 0.000000 0.000000 0.000000 -7.160173 6.267464 17.629463 -10.831568 -18.029662 -1.723432 -10.970551 19.250642 6.718891 0.000000 0.000000 0.000000 7.125000 0.000000 0.000000 13.272618 36.534957 2.824488
-0.526168 15.859068 4.057298 0.899903 -10.656126 5.684298 0.000000 0.000000 0.000000 -16.011648 1.651624 4.782778 0.000000 0.000000 0.000000 -0.200353 11.042809 -12.253034 0.004183 0.416729 1.145027 0.000000 0.000000 0.000000 12.585912 14.053473 -5.251370 -1.095874 -6.652257 18.689222 0.159994 -14.021150 -17.974010 -0.059366 1.572555 -4.325702 -0.126409 -2.034979 -1.220427 0.773480 -2.714845 -6.758367 0.990912 -1.327815 -6.282902 -1.329084 -7.824097 -12.034982 -0.739301 -10.660134 23.524472 -1.275152 -5.215186 9.420360 0.000000 0.000000 0.000000 1.067923 14.130878 -17.371034 16.512435 -26.210552 3.869573 5.669657 22.442861 -12.150495 0.000000 0.000000 0.000000 -7.125000 0.000000 0.000000 -19.061726 41.393538 -1.767624 0.000000 0.000000 0.000000 -7.308447 6.513158 16.210602 -10.633927 -17.724976 -1.662768 -11.254100 19.982617 6.581585 0.000000 0.000000 0.000000 7.125000 0.000000 0.000000 13.012769 36.415446 2.805706
-0.525879 15.857021 4.062296 0.934515 -10.650148 5.677654 0.000000 0.000000 0.000000 -16.049371 1.650911 4.808017 0.000000 0.000000 0.000000 -0.197200 11.022375 -12.281093 0.004260 0.419863 1.153584 0.000000 0.000000 0.000000 12.539292 14.025360 -5.297848 -1.108947 -6.690603 18.801871 0.143713 -13.948441 -18.072719 -0.059442 1.572563 -4.325744 -0.106568 -2.049047 -1.130035 0.817157 -2.731304 -6.858218 1.032765 -1.334654 -6.440254 -1.214857 -7.736224 -12.179537 -1.045975 -10.460134 23.059484 -1.362676 -5.150061 9.257972 0.000000 0.000000 0.000000 1.081663 14.488574 -16.415299 16.444103 -26.119124 3.839368 5.546298 22.423723 -12.244496 0.000000 0.000000 0.000000 -7.125000 0.000000 0.000000 -19.195647 41.471038 -1.742820 0.000000 0.000000 0.000000 -7.476066 6.852700 15.657459 -10.678167 -17.793224 -1.676273 -11.325260 19.863659 6.957034 0.000000 0.000000 0.000000 7.125000 0.000000 0.000000 13.025506 36.792144 2.685819
-0.527585 15.854723 4.069835 1.009339 -10.611769 5.672561 0.000000 0.000000 0.000000 -16.130020 1.612999 4.834305 0.000000 0.000000 0.000000 -0.197896 11.038266 -12.296504 0.003704 0.394315 1.083515 0.000000 0.000000 0.000000 12.464188 14.036842 -5.341950 -1.128758 -6.748093 18.971298 0.128315 -13.924042 -18.233937 -0.057912 1.552957 -4.271734 -0.121223 -2.074481 -1.124827 0.817731 -2.766297 -6.960744 1.046411 -1.350546 -6.551767 -1.089764 -7.623010 -12.527017 -1.380719 -10.235432 22.958663 -1.480709 -5.068776 9.259655 0.000000 0.000000 0.000000 1.189571 14.882074 -15.639230 16.396254 -26.055007 3.818365 5.525833 22.358904 -12.235761 0.000000 0.000000 0.000000 -7.125000 0.000000 0.000000 -19.210389 41.460911 -1.749247 0.000000 0.000000 0.000000 -7.574143 7.275278 15.855496 -10.943565 -18.201674 -1.758263 -11.207090 18.728245 6.983936 0.000000 0.000000 0.000000 7.125000 0.000000 0.000000 13.128373 36.811613 2.701518
-0.531528 15.851731 4.082419 1.043612 -10.551855 5.658800 0.000000 0.000000 0.000000 -16.155860 1.570729 4.903927 0.000000 0.000000 0.000000 -0.196031 11.038881 -12.336323 0.003400 0.377634 1.037518 0.000000 0.000000 0.000000 12.458372 14.056053 -5.302548 -1.143644 -6.790827 19.097222 0.120458 -13.964662 -18.396060 -0.058606 1.561902 -4.296349 -0.100761 -2.108926 -1.113465 0.798183 -2.813903 -7.128854 1.022557 -1.374913 -6.739979 -1.021983 -7.530379 -12.787966 -1.634604 -10.056966 23.033065 -1.570295 -5.004780 9.315549 0.000000 0.000000 0.000000 1.336023 15.392083 -14.921832 16.407646 -26.070227 3.823344 5.375205 22.309233 -12.244760 0.000000 0.000000 0.000000 -7.125000 0.000000 0.000000 -19.341201 41.455261 -1.765055 0.000000 0.000000 0.000000 -7.601599 7.725330 16.251417 -11.230160 -18.640244 -1.848805 -11.354108 17.453866 6.289970 0.000000 0.000000 0.000000 7.125000 0.000000 0.000000 12.876190 36.131697 2.866352
-0.536756 15.847625 4.098609 1.000948 -10.493299 5.659385 0.000000 0.000000 0.000000 -16.091671 1.544235 4.992104 0.000000 0.000000 0.000000 -0.190088 11.013179 -12.411630 0.003609 0.389615 1.070508 0.000000 0.000000 0.000000 12.550241 14.122500 -5.182489 -1.148712 -6.805509 19.140335 0.120950 -14.070049 -18.551924 -0.058800 1.564491 -4.303572 -0.022413 -2.144028 -1.176186 0.788795 -2.860247 -7.283277 0.973487 -1.402393 -6.873505 -0.975390 -7.420479 -12.993729 -1.820864 -9.867316 23.126280 -1.630956 -4.930737 9.373858 0.000000 0.000000 0.000000 1.438682 15.748795 -14.126746 16.398667 -26.058189 3.819376 5.288446 22.177006 -12.343799 0.000000 0.000000 0.000000 -7.125000 0.000000 0.000000 -19.445906 41.540743 -1.732543 0.000000 0.000000 0.000000 -7.613125 7.958012 16.579253 -11.408242 -18.911229 -1.906126 -11.320818 16.729922 6.224515 0.000000 0.000000 0.000000 7.125000 0.000000 0.000000 12.891530 36.064837 2.891506
-0.540296 15.843504 4.117774 1.003344 -10.467701 5.620842 0.000000 0.000000 0.000000 -16.089746 1.560974 5.121609 0.000000 0.000000 0.000000 -0.183972 10.989547 -12.493811 0.003834 0.400175 1.099590 0.000000 0.000000 0.000000 12.583102 14.116536 -5.083120 -1.159485 -6.836091 19.230706 0.108981 -14.078076 -18.712853 -0.057570 1.548282 -4.258901 -0.019212 -2.136388 -1.195401 0.770377 -2.851758 -7.434621 0.956146 -1.398215 -7.026883 -0.967575 -7.352395 -13.219943 -1.953022 -9.741544 23.255906 -1.677141 -4.883233 9.454211 0.000000 0.000000 0.000000 1.515771 15.996608 -13.679186 16.346233 -25.987823 3.796396 5.285374 22.192303 -12.356366 0.000000 0.000000 0.000000 -7.125000 0.000000 0.000000 -19.452537 41.552407 -1.727357 0.000000 0.000000 0.000000 -7.636293 8.176395 16.676760 -11.625866 -19.241194 -1.977223 -11.179648 16.198012 6.209658 0.000000 0.000000 0.000000 7.125000 0.000000 0.000000 13.004723 36.042161 2.925346
-0.544435 15.839642 4.138456 0.965988 -10.431362 5.567610 0.000000 0.000000 0.000000 -16.044763 1.578803 5.279040 0.000000 0.000000 0.000000 -0.177975 10.975807 -12.589509 0.004100 0.413668 1.136625 0.000000 0.000000 0.000000 12.676375 14.123132 -4.907419 -1.162297 -6.844237 19.254655 0.104932 -14.132454 -18.845472 -0.055732 1.523444 -4.190411 -0.028123 -2.109638 -1.303002 0.782414 -2.815842 -7.501194 0.969189 -1.379598 -7.035972 -0.900190 -7.229165 -13.399133 -2.122644 -9.538979 23.292910 -1.730494 -4.800377 9.488787 0.000000 0.000000 0.000000 1.571141 16.073303 -13.664685 16.305628 -25.933245 3.778604 5.227318 22.165448 -12.382835 0.000000 0.000000 0.000000 -7.125000 0.000000 0.000000 -19.510117 41.571780 -1.723087 0.000000 0.000000 0.000000 -7.677700 8.277807 16.490125 -11.904741 -19.661606 -2.070092 -11.225848 15.250733 6.187473 0.000000 0.000000 0.000000 7.125000 0.000000 0.000000 12.962680 36.022863 2.921682
